<?xml version="1.0" standalone="no"?>
<!DOCTYPE svg PUBLIC "-//W3C//DTD SVG 20010904//EN"
 "http://www.w3.org/TR/2001/REC-SVG-20010904/DTD/svg10.dtd">
<svg version="1.0" xmlns="http://www.w3.org/2000/svg"
 width="133.000000pt" height="133.000000pt" viewBox="0 0 133.000000 133.000000"
 preserveAspectRatio="xMidYMid meet">
<metadata>
Created by potrace 1.14, written by Peter Selinger 2001-2017
</metadata>
<g transform="translate(0.000000,133.000000) scale(0.100000,-0.100000)"
fill="#000000" stroke="none">
<path d="M728 1065 c-3 -3 -85 -7 -182 -7 -112 -1 -182 -5 -191 -12 -25 -18
-31 -64 -30 -235 l1 -164 27 -21 c25 -20 36 -21 304 -20 153 0 290 4 305 7 15
4 30 17 33 28 6 18 8 326 3 381 -2 24 -42 36 -123 37 -38 1 -86 4 -105 7 -19
3 -38 3 -42 -1z"/>
<path d="M270 447 c-14 -6 -27 -13 -30 -15 -3 -2 -6 -35 -6 -73 -1 -58 1 -71
17 -79 22 -12 109 -13 128 -1 20 13 20 149 1 161 -8 5 -18 6 -22 4 -4 -3 -8
-1 -8 5 0 7 -8 7 -24 1 -14 -5 -26 -5 -28 -1 -2 5 -14 4 -28 -2z m72 -41 c10
-14 10 -96 1 -97 -49 -9 -63 -4 -64 21 -1 14 -2 32 -3 40 -3 27 12 46 36 46
13 0 26 -5 30 -10z"/>
<path d="M6 443 c-3 -3 -6 -44 -6 -90 0 -60 3 -83 13 -83 25 0 39 18 35 45 -2
17 2 30 10 33 7 2 12 0 11 -5 -1 -4 1 -15 5 -24 10 -23 43 -12 61 20 14 26 14
25 15 -20 0 -41 2 -46 22 -45 19 1 23 7 23 36 0 19 5 38 10 42 7 5 6 8 -1 8
-6 0 -10 15 -9 34 2 42 -4 52 -30 51 -12 0 -27 -13 -39 -35 -24 -47 -36 -58
-36 -35 0 10 -3 15 -7 11 -4 -3 -12 8 -17 25 -10 30 -43 48 -60 32z"/>
<path d="M435 440 c-4 -6 -5 -36 -4 -68 1 -32 -1 -64 -5 -70 -4 -7 -2 -12 4
-12 6 0 8 -5 4 -11 -4 -7 2 -9 17 -7 19 2 24 10 25 31 2 58 64 58 64 1 0 -35
21 -47 36 -22 9 13 12 158 4 159 -3 0 -13 2 -22 4 -13 2 -18 -3 -18 -20 0 -43
-9 -54 -38 -46 -21 6 -26 13 -24 31 5 30 -29 53 -43 30z"/>
<path d="M629 437 c-1 -7 -2 -47 -3 -89 l-1 -77 71 1 c60 1 71 4 69 17 -1 11
-14 17 -45 18 -23 1 -45 4 -48 7 -9 10 19 34 36 31 20 -3 44 14 36 26 -3 5
-21 9 -41 9 -28 0 -34 3 -29 16 3 9 6 17 6 18 0 1 20 0 44 -1 37 -2 44 0 42
14 -2 14 -15 18 -69 19 -45 2 -67 -2 -68 -9z"/>
<path d="M799 433 c-1 -7 -2 -19 -3 -25 -1 -7 3 -19 8 -27 8 -11 8 -13 0 -8
-8 4 -11 -10 -10 -46 l2 -52 59 -1 c79 -2 103 10 97 44 -3 15 -9 32 -14 39 -6
8 -6 18 0 29 6 12 6 25 0 39 -8 19 -18 21 -74 21 -46 0 -64 -3 -65 -13z m98
-37 c-2 -6 -15 -12 -28 -14 -18 -2 -25 2 -26 16 -1 15 4 18 28 14 17 -2 28 -9
26 -16z m-9 -87 c-29 -7 -48 -1 -48 16 0 20 43 24 58 6 11 -14 9 -17 -10 -22z"/>
<path d="M1028 433 c-6 -7 -7 -13 -3 -13 4 0 3 -6 -2 -12 -6 -7 -16 -31 -23
-53 -7 -22 -15 -44 -19 -50 -13 -23 -8 -35 15 -35 14 0 23 3 21 8 -8 12 16 27
45 28 18 1 29 -5 33 -16 3 -11 16 -17 31 -17 19 0 24 3 18 16 -3 9 -9 25 -12
36 -2 11 -8 25 -12 30 -3 6 -12 28 -19 51 -10 32 -18 40 -37 40 -14 0 -30 -6
-36 -13z m39 -95 c-6 -4 -15 -4 -20 -1 -5 3 -3 9 4 14 8 5 10 9 6 9 -5 0 -5 5
-1 12 5 8 10 6 14 -8 4 -10 2 -22 -3 -26z"/>
<path d="M1184 435 c-4 -8 -11 -12 -17 -8 -6 4 -7 1 -1 -8 5 -8 10 -39 10 -69
2 -79 3 -80 19 -80 18 0 34 28 28 51 -9 33 24 21 41 -15 12 -25 22 -33 40 -33
l25 -1 -21 42 c-25 46 -25 64 0 86 24 21 27 48 5 45 -33 -3 -51 -16 -57 -41
-9 -36 -36 -31 -32 5 2 19 -2 32 -11 35 -21 8 -23 8 -29 -9z"/>
</g>
</svg>
